:version 1.10
:name ASF
:units
  mass 1
  length 1
  angle deg
:documentation
  ASF file generated by Kaydara
:root
  axis xyz
  order  tx ty tz rx ry rz
  position 0 0 0
  orientation 0 0 0
:bonedata
  begin
    id 1
    name RightUpLegDummy
    direction -0.718183 -0.695806 0.00816078
    length 4.904
    axis 0 0 0 xyz
  end
  begin
    id 2
    name RightUpLeg
    direction 3.53373e-006 -0.995788 0.0916898
    length 17.4976
    axis -3.49089 -0.000906625 0.000286804 xyz
    dof rx ry rz
  end
  begin
    id 3
    name RightLeg
    direction 0.00371092 -0.995096 -0.0988419
    length 16.5821
    axis 3.68512 0.0193738 -0.131023 xyz
    dof rx ry rz
  end
  begin
    id 4
    name RightFoot
    direction 0.00079151 -0.46099 0.887405
    length 3.77069
    axis 4.81691e-005 -0.120479 -0.188788 xyz
    dof rx ry rz
  end
  begin
    id 5
    name RightToes
    direction 0 0 0
    length 0
    axis 0 0 0 xyz
    dof rx ry rz
  end
  begin
    id 6
    name SpineDummy
    direction 8.3039e-015 1 4.57515e-016
    length 4.6813
    axis 0 0 0 xyz
  end
  begin
    id 7
    name Spine
    direction -3.15643e-008 0.999988 0.00495137
    length 10.1015
    axis -0.001389 0.000121418 2.40972e-006 xyz
    dof rx ry rz
  end
  begin
    id 8
    name Spine1
    direction 0 0 0
    length 0
    axis -0.001389 0.000121451 1.30017e-006 xyz
    dof rx ry rz
  end
  begin
    id 9
    name HEadDummy
    direction -1.99912e-008 0.999999 0.00127422
    length 3.43865
    axis -0.001389 0.000121451 1.30017e-006 xyz
  end
  begin
    id 10
    name HEad
    direction 0 0 0
    length 0
    axis 0 0 0 xyz
    dof rx ry rz
  end
  begin
    id 11
    name LeftShoulder1Dummy
    direction 0.998891 -0.0402509 -0.0244456
    length 3.5433
    axis -0.001389 0.000121451 1.30017e-006 xyz
  end
  begin
    id 12
    name LeftShoulder1
    direction 0.99951 -0.000327763 0.0313091
    length 4.05031
    axis -0.001389 0.000121451 1.30017e-006 xyz
    dof rx ry rz
  end
  begin
    id 13
    name LeftArm
    direction 0.998561 -0.00100056 -0.0536182
    length 10.3537
    axis -23.1894 0.134784 0.967509 xyz
    dof rx ry rz
  end
  begin
    id 14
    name LeftForeArm
    direction 0.998903 0.00866432 0.046012
    length 8.70632
    axis -9.91835 -0.06569 -0.177794 xyz
    dof rx ry rz
  end
  begin
    id 15
    name LeftHand
    direction 0 0 0
    length 0
    axis 0 0 0 xyz
    dof rx ry rz
  end
  begin
    id 16
    name RightShoulderDummy
    direction -0.998891 -0.0402509 -0.0244414
    length 3.5433
    axis -0.001389 0.000121451 1.30017e-006 xyz
  end
  begin
    id 17
    name RightShoulder
    direction -0.99951 -0.000327807 0.0313133
    length 4.05031
    axis 0.215806 0.000203643 -0.0068026 xyz
    dof rx ry rz
  end
  begin
    id 18
    name RightArm
    direction -0.998573 -0.000999564 -0.053403
    length 10.3947
    axis -23.2009 -0.134239 -0.964101 xyz
    dof rx ry rz
  end
  begin
    id 19
    name RightForeArm
    direction -0.998898 0.00868028 0.0461306
    length 8.68355
    axis -9.92322 0.0658061 0.178868 xyz
    dof rx ry rz
  end
  begin
    id 20
    name RightHand
    direction 0 0 0
    length 0
    axis 0 0 0 xyz
    dof rx ry rz
  end
  begin
    id 21
    name LeftUpLegDummy
    direction 0.718183 -0.695806 0.00816078
    length 4.904
    axis 0 0 0 xyz
  end
  begin
    id 22
    name LeftUpLeg
    direction -6.81752e-006 -0.995793 0.0916337
    length 17.4976
    axis -3.48766 0.00143442 -0.000524262 xyz
    dof rx ry rz
  end
  begin
    id 23
    name LeftLeg
    direction -0.00601358 -0.995091 -0.0987824
    length 16.5821
    axis 3.68178 -0.00654042 -0.000285133 xyz
    dof rx ry rz
  end
  begin
    id 24
    name LeftFoot
    direction -0.00417578 -0.460984 0.887399
    length 3.77069
    axis 1.87233e-006 4.66016e-005 -8.6538e-006 xyz
    dof rx ry rz
  end
  begin
    id 25
    name LeftToes
    direction 0 0 0
    length 0
    axis 0 0 0 xyz
    dof rx ry rz
  end
:hierarchy
  begin
    root RightUpLegDummy SpineDummy LeftUpLegDummy
    RightUpLegDummy RightUpLeg
    RightUpLeg RightLeg
    RightLeg RightFoot
    RightFoot RightToes
    SpineDummy Spine
    Spine Spine1
    Spine1 HEadDummy LeftShoulder1Dummy RightShoulderDummy
    HEadDummy HEad
    LeftShoulder1Dummy LeftShoulder1
    LeftShoulder1 LeftArm
    LeftArm LeftForeArm
    LeftForeArm LeftHand
    RightShoulderDummy RightShoulder
    RightShoulder RightArm
    RightArm RightForeArm
    RightForeArm RightHand
    LeftUpLegDummy LeftUpLeg
    LeftUpLeg LeftLeg
    LeftLeg LeftFoot
    LeftFoot LeftToes
  end

:SAMPLES-PER-SECOND 30
:FULLY-SPECIFIED
:DEGREES
253
root  12.2653 40.1062 12.621 167.564 83.7032 170.679
RightUpLeg  -3.82438 -22.1033 -10.3167
RightLeg  18.2692 -6.94928 -1.62915
RightFoot  -4.4317 -0.236338 3.41155
RightToes  0.000481921 0.542163 -0.142578
Spine  12.0354 0.140321 4.41028
Spine1  9.86697 2.16974 -5.21596
HEad  12.5989 4.43704 -5.73739
LeftShoulder1  5.44447 -11.47 -30.3091
LeftArm  -3.1677 -21.0741 -48.9645
LeftForeArm  -166.943 -52.4431 -168.587
LeftHand  -0.25398 0.0180481 5.50724
RightShoulder  4.69351 11.2227 25.7782
RightArm  1.93552 24.1587 67.1589
RightForeArm  -166.06 57.7957 166.139
RightHand  -0.180429 1.16481 -3.32674
LeftUpLeg  -4.86387 13.8895 6.95077
LeftLeg  14.5726 2.64631 0.519652
LeftFoot  -2.37182 0.398624 -4.89815
LeftToes  1.06245e-005 4.65869e-005 -8.65517e-006
254
root  12.1294 40.162 12.636 168.173 82.8313 170.705
RightUpLeg  -4.05571 -22.1059 -10.4711
RightLeg  17.5522 -7.9012 -1.28727
RightFoot  -4.07217 -0.23623 3.28033
RightToes  0.000481921 0.542163 -0.142578
Spine  12.4599 0.16607 4.55402
Spine1  9.30135 2.17111 -5.17684
HEad  11.889 3.75158 -5.26243
LeftShoulder1  5.46786 -11.7694 -29.7403
LeftArm  -3.89875 -23.029 -48.6828
LeftForeArm  -166.994 -52.935 -168.378
LeftHand  -0.25398 0.0180481 5.50724
RightShoulder  4.38459 10.8138 24.479
RightArm  0.850899 27.2587 66.7805
RightForeArm  -170.521 58.2672 165.533
RightHand  -0.247411 1.45725 -4.35626
LeftUpLeg  -5.32736 13.0503 6.6605
LeftLeg  13.4281 2.78008 0.0840237
LeftFoot  -1.55547 0.418559 -4.77905
LeftToes  1.06245e-005 4.65869e-005 -8.65517e-006
255
root  11.9538 40.1555 12.624 166.093 82.7536 168.503
RightUpLeg  -4.66768 -22.0892 -10.5285
RightLeg  17.7977 -7.947 -1.54597
RightFoot  -3.92201 -0.22705 3.08859
RightToes  0.000481921 0.542163 -0.142578
Spine  13.4591 0.241954 4.56119
Spine1  8.98138 2.20675 -4.95983
HEad  10.7082 3.60472 -5.40619
LeftShoulder1  5.49877 -11.9431 -29.5347
LeftArm  -4.96616 -24.7625 -48.2798
LeftForeArm  -167.523 -53.1816 -168.236
LeftHand  -0.25398 0.0180481 5.50724
RightShoulder  4.22151 10.6275 23.691
RightArm  0.10665 30.5717 66.2971
RightForeArm  -174.597 58.7902 164.905
RightHand  -0.312221 1.69378 -5.3097
LeftUpLeg  -5.5674 12.9997 6.31952
LeftLeg  13.1281 2.86383 -0.113493
LeftFoot  -1.2089 0.420725 -4.66324
LeftToes  1.06245e-005 4.65869e-005 -8.65517e-006
256
root  11.7955 40.1511 12.5761 163.045 83.1963 165.709
RightUpLeg  -4.87185 -21.6977 -10.7187
RightLeg  17.8962 -7.80525 -1.65722
RightFoot  -3.6779 -0.219919 2.9083
RightToes  0.000481921 0.542163 -0.142578
Spine  14.6095 0.204126 4.66717
Spine1  8.93992 2.1747 -4.78348
HEad  9.82633 3.98025 -5.67378
LeftShoulder1  5.44647 -11.859 -29.3863
LeftArm  -5.84653 -25.5623 -48.2782
LeftForeArm  -167.988 -53.3412 -168.134
LeftHand  -0.25398 0.0180481 5.50724
RightShoulder  4.22194 10.7189 23.4893
RightArm  -0.33974 32.8226 65.965
RightForeArm  -175.028 59.2651 164.59
RightHand  -0.316756 1.59261 -5.44592
LeftUpLeg  -5.2879 13.1359 6.11586
LeftLeg  12.9187 3.25379 -0.212181
LeftFoot  -1.00086 0.414773 -4.51724
LeftToes  1.06245e-005 4.65869e-005 -8.65517e-006
257
root  11.7109 40.186 12.4934 161.152 83.7161 163.915
RightUpLeg  -4.63419 -21.1166 -11.0245
RightLeg  17.2044 -7.89463 -1.17354
RightFoot  -3.23633 -0.223507 2.84184
RightToes  0.000481921 0.542163 -0.142578
Spine  14.9444 0.0600859 4.93194
Spine1  9.23047 2.04692 -4.66327
HEad  9.77418 4.49784 -5.65642
LeftShoulder1  5.33403 -11.6489 -29.1314
LeftArm  -6.05002 -25.2705 -49.0531
LeftForeArm  -167.848 -53.5831 -168.039
LeftHand  -0.25398 0.0180481 5.50724
RightShoulder  4.3385 10.8533 24.0512
RightArm  -0.666616 32.9712 65.5434
RightForeArm  -172.735 59.4799 164.655
RightHand  -0.248059 1.12655 -4.54496
LeftUpLeg  -4.88243 12.9121 6.06225
LeftLeg  12.362 4.05991 -0.332229
LeftFoot  -0.715552 0.410637 -4.36953
LeftToes  1.06245e-005 4.65869e-005 -8.65517e-006
258
root  11.7099 40.2581 12.3992 160.163 84.2167 162.57
RightUpLeg  -4.4267 -19.9225 -11.2229
RightLeg  15.9054 -8.70865 -0.479829
RightFoot  -2.62076 -0.23574 2.85607
RightToes  0.000481921 0.542163 -0.142578
Spine  14.0833 -0.0502895 4.92543
Spine1  9.90197 1.80139 -4.2657
HEad  10.2448 5.00257 -5.35038
LeftShoulder1  5.26889 -11.5113 -29.0179
LeftArm  -5.6563 -24.3489 -50.1133
LeftForeArm  -167.433 -53.6792 -168.026
LeftHand  -0.25398 0.0180481 5.50724
RightShoulder  4.50932 10.9092 25.1717
RightArm  -0.824153 31.3268 64.8968
RightForeArm  -171.402 59.2796 164.884
RightHand  -0.146426 0.324092 -2.9988
LeftUpLeg  -4.62137 12.1019 6.03818
LeftLeg  11.3446 5.44656 -0.562846
LeftFoot  -0.295773 0.408785 -4.20988
LeftToes  1.06245e-005 4.65869e-005 -8.65517e-006
259
root  11.7513 40.3415 12.3148 159.052 84.7592 160.938
RightUpLeg  -4.30635 -17.9022 -11.2208
RightLeg  14.4226 -10.2654 0.00348219
RightFoot  -1.95145 -0.250344 2.88474
RightToes  0.000481921 0.542163 -0.142578
Spine  12.9088 -0.169154 4.26479
Spine1  10.4807 1.26368 -3.20309
HEad  10.5849 5.64974 -4.9501
LeftShoulder1  5.24861 -11.3929 -29.1635
LeftArm  -5.0605 -23.4933 -50.97
LeftForeArm  -167.231 -53.4951 -168.121
LeftHand  -0.25398 0.0180481 5.50724
RightShoulder  4.66063 10.9334 26.2098
RightArm  -0.59491 29.2557 64.4725
RightForeArm  -172.575 58.6577 165.146
RightHand  -0.065118 -0.74359 -1.48904
LeftUpLeg  -4.34785 11.0196 6.06982
LeftLeg  10.0989 7.14652 -0.919164
LeftFoot  0.134266 0.405231 -4.04111
LeftToes  1.06245e-005 4.65869e-005 -8.65517e-006
260
root  11.7774 40.3996 12.2408 159.181 85.2823 160.746
RightUpLeg  -4.07637 -15.9959 -11.0944
RightLeg  13.117 -11.7061 0.382694
RightFoot  -1.42728 -0.266713 2.9611
RightToes  0.000481921 0.542163 -0.142578
Spine  12.5045 -0.456122 3.16628
Spine1  10.2795 0.33898 -1.50841
HEad  10.5471 6.49275 -4.60563
LeftShoulder1  5.20669 -11.2047 -29.3317
LeftArm  -4.52241 -23.2254 -51.7298
LeftForeArm  -167.105 -53.3296 -168.201
LeftHand  -0.25398 0.0180481 5.50724
RightShoulder  4.73787 10.9651 26.6908
RightArm  -0.113451 27.9481 64.6376
RightForeArm  -174.344 57.7867 165.489
RightHand  -0.0320229 -1.62229 -0.624378
LeftUpLeg  -4.1512 10.4657 6.23382
LeftLeg  9.34665 8.20304 -1.17034
LeftFoot  0.30083 0.401296 -3.95423
LeftToes  1.06245e-005 4.65869e-005 -8.65517e-006
261
root  11.7521 40.4043 12.1663 161.492 85.7908 162.974
RightUpLeg  -3.9424 -15.1944 -10.9205
RightLeg  12.4324 -12.1202 0.775749
RightFoot  -1.19551 -0.283844 3.10487
RightToes  0.000481921 0.542163 -0.142578
Spine  12.968 -0.827901 2.15957
Spine1  9.36419 -0.655904 0.272275
HEad  10.2733 7.27642 -4.34912
LeftShoulder1  5.16555 -11.1405 -29.2038
LeftArm  -4.16106 -23.776 -52.6198
LeftForeArm  -166.805 -53.5301 -168.135
LeftHand  -0.25398 0.0180481 5.50724
RightShoulder  4.73031 10.9791 26.6033
RightArm  0.131211 27.7972 65.1221
RightForeArm  -175.078 57.025 165.841
RightHand  -0.0283545 -2.08511 -0.452319
LeftUpLeg  -4.40045 10.9661 6.41995
LeftLeg  9.75395 8.0821 -0.986264
LeftFoot  0.0325742 0.395793 -3.97707
LeftToes  1.06245e-005 4.65869e-005 -8.65517e-006
262
root  11.684 40.3586 12.0832 162.563 86.555 164.142
RightUpLeg  -4.23833 -15.5038 -10.7248
RightLeg  12.6823 -11.1658 0.907147
RightFoot  -1.22922 -0.293295 3.21169
RightToes  0.000481921 0.542163 -0.142578
Spine  13.6373 -1.03671 1.50575
Spine1  8.638 -1.27107 1.51603
HEad  9.87676 7.74109 -4.13754
LeftShoulder1  5.183 -11.3815 -28.7419
LeftArm  -4.06465 -25.0239 -53.5276
LeftForeArm  -166.582 -54.0618 -167.917
LeftHand  -0.25398 0.0180481 5.50724
RightShoulder  4.67524 10.9933 26.1757
RightArm  -0.0185221 28.6956 65.4984
RightForeArm  -175.815 56.8446 165.877
RightHand  -0.0369227 -2.45771 -0.752083
LeftUpLeg  -4.92799 12.2556 6.45489
LeftLeg  11.0473 7.41748 -0.417893
LeftFoot  -0.53566 0.379332 -3.97642
LeftToes  1.06245e-005 4.65869e-005 -8.65517e-006
263
root  11.6204 40.2981 11.9932 154.022 87.7627 155.907
RightUpLeg  -4.78157 -16.0564 -10.5262
RightLeg  13.4803 -9.37453 0.632115
RightFoot  -1.34585 -0.296146 3.22333
RightToes  0.000481921 0.542163 -0.142578
Spine  14.0902 -1.01344 1.1813
Spine1  8.61176 -1.39039 1.93923
HEad  9.49824 7.83939 -3.88584
LeftShoulder1  5.23201 -11.7483 -28.2121
LeftArm  -4.13672 -26.3486 -54.2619
LeftForeArm  -166.694 -54.606 -167.665
LeftHand  -0.25398 0.0180481 5.50724
RightShoulder  4.63373 11.0408 25.7687
RightArm  -0.12592 30.0958 65.7369
RightForeArm  -177.504 57.4433 165.419
RightHand  -0.050743 -2.71187 -1.34758
LeftUpLeg  -5.07178 13.8054 6.41024
LeftLeg  12.3021 7.00792 0.0987237
LeftFoot  -1.14355 0.352883 -3.8777
LeftToes  1.06245e-005 4.65869e-005 -8.65517e-006
264
root  11.6064 40.2595 11.9025 116.374 88.8329 118.674
RightUpLeg  -5.11522 -16.0391 -10.4226
RightLeg  14.06 -7.82234 0.299489
RightFoot  -1.38577 -0.298474 3.23164
RightToes  0.000481921 0.542163 -0.142578
Spine  14.3187 -0.93366 1.1607
Spine1  8.89739 -1.25566 1.72889
HEad  9.3972 7.68818 -3.58441
LeftShoulder1  5.2679 -11.94 -28.0139
LeftArm  -4.10634 -27.0194 -54.7714
LeftForeArm  -166.888 -54.8975 -167.517
LeftHand  -0.25398 0.0180481 5.50724
RightShoulder  4.644 11.1327 25.6325
RightArm  0.205074 31.0538 66.0756
RightForeArm  -178.943 58.4367 164.745
RightHand  -0.0687072 -2.4235 -2.00988
LeftUpLeg  -4.62649 15.2057 6.44825
LeftLeg  12.9811 7.00719 0.317907
LeftFoot  -1.64914 0.332176 -3.80162
LeftToes  1.06245e-005 4.65869e-005 -8.65517e-006
265
root  11.6484 40.2493 11.8146 53.8213 88.7408 56.4213
RightUpLeg  -5.15983 -15.6652 -10.4835
RightLeg  14.1873 -6.88871 0.202135
RightFoot  -1.34451 -0.303996 3.30484
RightToes  0.000481921 0.542163 -0.142578
Spine  14.2257 -0.955247 1.38736
Spine1  9.1771 -1.14506 1.30554
HEad  9.63733 7.45401 -3.349
LeftShoulder1  5.32176 -11.9687 -28.3063
LeftArm  -3.88474 -26.8896 -55.0694
LeftForeArm  -166.791 -54.897 -167.524
LeftHand  -0.25398 0.0180481 5.50724
RightShoulder  4.68818 11.2632 25.6519
RightArm  0.825355 30.9901 66.5829
RightForeArm  -178.963 59.1913 164.3
RightHand  -0.0941106 -1.59754 -2.5376
LeftUpLeg  -4.02262 15.9858 6.48454
LeftLeg  13.1917 7.39944 0.408966
LeftFoot  -2.01164 0.325609 -3.84245
LeftToes  1.06245e-005 4.65869e-005 -8.65517e-006
266
root  11.7179 40.2482 11.7352 35.1442 88.062 37.8692
RightUpLeg  -5.14495 -15.4562 -10.6587
RightLeg  14.1967 -6.27074 0.217894
RightFoot  -1.3345 -0.310436 3.41814
RightToes  0.000481921 0.542163 -0.142578
Spine  13.7374 -1.05075 1.6371
Spine1  9.59269 -1.14891 1.00626
HEad  9.91219 7.2797 -3.28792
LeftShoulder1  5.42367 -12.0502 -28.7923
LeftArm  -3.66943 -26.329 -55.2282
LeftForeArm  -166.549 -54.7195 -167.623
LeftHand  -0.25398 0.0180481 5.50724
RightShoulder  4.71304 11.3719 25.5835
RightArm  1.46804 30.2214 67.1626
RightForeArm  -178.451 59.4403 164.192
RightHand  -0.120508 -0.783282 -2.89972
LeftUpLeg  -3.62577 16.1282 6.36001
LeftLeg  13.2729 8.0092 0.565316
LeftFoot  -2.26488 0.325848 -3.93354
LeftToes  1.06245e-005 4.65869e-005 -8.65517e-006
267
root  11.7762 40.2249 11.6704 31.5368 87.614 34.3279
RightUpLeg  -5.30949 -15.6173 -10.8135
RightLeg  14.5762 -5.57929 0.0991172
RightFoot  -1.54908 -0.318421 3.5918
RightToes  0.000481921 0.542163 -0.142578
Spine  13.2745 -1.13437 1.75639
Spine1  9.95541 -1.22284 0.957354
HEad  9.78025 7.21658 -3.4183
LeftShoulder1  5.53876 -12.2341 -29.1233
LeftArm  -3.59327 -25.5913 -55.3311
LeftForeArm  -166.573 -54.4379 -167.749
LeftHand  -0.25398 0.0180481 5.50724
RightShoulder  4.70045 11.3995 25.434
RightArm  2.12192 29.3336 67.723
RightForeArm  -178.707 59.3884 164.202
RightHand  -0.143311 -0.272908 -3.21524
LeftUpLeg  -3.5614 16.5566 6.13381
LeftLeg  13.6655 8.01026 0.807013
LeftFoot  -2.61465 0.323388 -4.03239
LeftToes  1.06245e-005 4.65869e-005 -8.65517e-006
